<svg width="44" height="44" viewBox="0 0 44 44" fill="none" xmlns="http://www.w3.org/2000/svg">
<path d="M40.6949 22.4342C41.1995 22.3764 41.6929 22.6096 41.9636 23.0339C42.2344 23.4582 42.2344 23.9982 41.9636 24.4224C41.6929 24.8467 41.1995 25.0799 40.6949 25.0221H38.8298V29.9026C38.8345 32.1812 37.9208 34.368 36.2902 35.9808C34.6596 37.5937 32.4461 38.5 30.1378 38.5H28.7126C27.9838 38.5 27.3929 37.9168 27.3929 37.1974C27.3929 36.4779 27.9838 35.8947 28.7126 35.8947H30.1378C33.4628 35.8567 36.138 33.185 36.1377 29.9026V25.0221H31.1935V26.9674C31.1935 28.0499 30.7579 29.088 29.9824 29.8535C29.207 30.6189 28.1553 31.0489 27.0586 31.0489H16.9942C14.7105 31.0489 12.8593 29.2216 12.8593 26.9674V25.0221H7.98542V29.9026C7.98542 33.212 10.7032 35.8947 14.0558 35.8947H15.569C16.2978 35.8947 16.8886 36.4779 16.8886 37.1974C16.8886 37.9168 16.2978 38.5 15.569 38.5H14.1437C9.31911 38.5002 5.39439 34.6648 5.34614 29.9026V25.0221H3.3051C2.80052 25.0799 2.30712 24.8467 2.03638 24.4224C1.76565 23.9982 1.76565 23.4582 2.03638 23.0339C2.30712 22.6096 2.80052 22.3764 3.3051 22.4342H40.6949ZM27.041 12.9511C28.1377 12.9511 29.1894 13.3811 29.9648 14.1465C30.7403 14.912 31.1759 15.9501 31.1759 17.0326V19.2732C31.1809 19.4036 31.1306 19.5302 31.0371 19.6225C30.9436 19.7147 30.8154 19.7644 30.6832 19.7595H13.352C13.2198 19.7644 13.0916 19.7147 12.9981 19.6225C12.9046 19.5302 12.8543 19.4036 12.8593 19.2732V17.0326C12.8593 14.7784 14.7105 12.9511 16.9942 12.9511H27.041ZM30.1378 5.5C34.9346 5.58524 38.7778 9.44844 38.777 14.1842V16.0426C38.777 16.7621 38.1862 17.3453 37.4574 17.3453C36.7286 17.3453 36.1377 16.7621 36.1377 16.0426V14.1842C36.1612 12.592 35.5417 11.056 34.416 9.91546C33.2902 8.77489 31.7509 8.12356 30.1378 8.10526H28.7126C27.9838 8.10526 27.3929 7.52206 27.3929 6.80263C27.3929 6.08321 27.9838 5.5 28.7126 5.5H30.1378ZM15.481 5.5C16.2058 5.50935 16.7911 6.08712 16.8006 6.80263C16.7911 7.51814 16.2058 8.09591 15.481 8.10526H14.0558C12.4305 8.10509 10.873 8.74831 9.73198 9.8909C8.59101 11.0335 7.96187 12.58 7.98542 14.1842V16.0426C7.97595 16.7581 7.39064 17.3359 6.66578 17.3453H6.64819L6.47091 17.3312C5.83359 17.2381 5.34614 16.6959 5.34614 16.0426V14.1842C5.3459 9.42176 9.23138 5.54762 14.0558 5.5H15.481Z" fill="white"/>
</svg>
